<svg width="24" height="24" viewBox="0 0 24 24" fill="none" xmlns="http://www.w3.org/2000/svg">
<g clip-path="url(#clip0)">
<path d="M22.2257 -0.000222942H1.77064C1.30658 -0.00516578 0.859509 0.174206 0.527549 0.498526C0.19559 0.822846 0.00586067 1.26562 0 1.72967L0 22.2662C0.00241944 22.4963 0.0501392 22.7236 0.140434 22.9353C0.230729 23.1469 0.361831 23.3387 0.526253 23.4997C0.690675 23.6607 0.885197 23.7877 1.09871 23.8735C1.31222 23.9593 1.54055 24.0022 1.77064 23.9998H22.2257C22.4562 24.0027 22.6851 23.9602 22.8993 23.8747C23.1134 23.7891 23.3086 23.6622 23.4738 23.5013C23.6389 23.3403 23.7707 23.1483 23.8616 22.9364C23.9525 22.7245 24.0008 22.4968 24.0037 22.2662V1.72967C23.9969 1.26463 23.8058 0.821302 23.4725 0.496979C23.1391 0.172656 22.6907 -0.00616032 22.2257 -0.000222942Z" fill="#0A66C2"/>
<path d="M5.33794 7.43079C6.47746 7.43079 7.40122 6.50703 7.40122 5.36751C7.40122 4.22799 6.47746 3.30423 5.33794 3.30423C4.19842 3.30423 3.27466 4.22799 3.27466 5.36751C3.27466 6.50703 4.19842 7.43079 5.33794 7.43079Z" fill="white"/>
<path d="M7.11596 8.99771H3.55615V20.4476H7.11596V8.99771Z" fill="white"/>
<path d="M20.4513 14.1652V20.4624H16.8915V14.906C16.8915 13.5799 16.8693 11.8685 15.0394 11.8685C13.2095 11.8685 12.9057 13.3169 12.9057 14.8097V20.4476H9.34961V8.99771H12.7612V10.5609H12.8094C13.1504 9.97625 13.6437 9.49514 14.2367 9.16894C14.8298 8.84274 15.5002 8.68369 16.1766 8.70877C19.7846 8.71248 20.4513 11.0832 20.4513 14.1652Z" fill="white"/>
</g>
<defs>
<clipPath id="clip0">
<rect width="24" height="24" fill="white"/>
</clipPath>
</defs>
</svg>
