<svg width="24" height="24" viewBox="0 0 24 24" fill="none" xmlns="http://www.w3.org/2000/svg">
<path d="M11.6534 7.276L11.7054 8.13385L10.8383 8.02881C7.68221 7.62614 4.92494 6.26058 2.58386 3.96714L1.43933 2.82918L1.14453 3.66952C0.52024 5.54279 0.91909 7.5211 2.21969 8.85164C2.91334 9.58694 2.75727 9.69199 1.56072 9.25431C1.14453 9.11425 0.78036 9.00921 0.745677 9.06173C0.624288 9.18428 1.04048 10.7774 1.36996 11.4077C1.82084 12.283 2.73993 13.1409 3.74573 13.6486L4.59545 14.0513L3.58965 14.0688C2.61854 14.0688 2.58386 14.0863 2.68791 14.4539C3.03473 15.5919 4.4047 16.7999 5.93073 17.3251L7.00589 17.6928L6.06946 18.253C4.68216 19.0583 3.05207 19.5135 1.42199 19.5485C0.641629 19.566 0 19.6361 0 19.6886C0 19.8636 2.11564 20.844 3.34688 21.2292C7.04058 22.3672 11.4279 21.877 14.7228 19.9337C17.0639 18.5506 19.4049 15.802 20.4974 13.1409C21.087 11.7228 21.6767 9.13176 21.6767 7.88875C21.6767 7.08342 21.7287 6.97838 22.6998 6.01548C23.2721 5.45525 23.8096 4.8425 23.9137 4.66743C24.0871 4.33479 24.0698 4.33479 23.1853 4.63242C21.7113 5.15763 21.5032 5.0876 22.2316 4.29978C22.7692 3.73955 23.4108 2.72414 23.4108 2.42651C23.4108 2.37399 23.1507 2.46153 22.8559 2.61909C22.5437 2.79416 21.8501 3.05677 21.3298 3.21434L20.3934 3.51196L19.5437 2.93422C19.0755 2.61909 18.4165 2.26895 18.0697 2.16391C17.1853 1.91881 15.8326 1.95382 15.0349 2.23394C12.8673 3.02176 11.4973 5.05259 11.6534 7.276Z" fill="#55ACEE"/>
</svg>
