<svg xmlns="http://www.w3.org/2000/svg" width="24" height="16" fill="none"><path d="M23.523 5.52l-1.846-.497a.613.613 0 00-.704.295l-.939 1.646a.63.63 0 00.235.854.553.553 0 00.313.077.635.635 0 00.547-.31l.376-.652a3.66 3.66 0 01.532 1.894c0 3.276-4.506 5.93-10.06 5.93-5.555 0-10.06-2.67-10.06-5.93 0-.668.187-1.304.562-1.94l.392.698c.11.202.328.31.547.31.11 0 .22-.03.313-.077a.626.626 0 00.235-.854l-.939-1.646a.622.622 0 00-.704-.295L.46 5.52a.623.623 0 00-.438.76.629.629 0 00.767.435l.406-.108A4.82 4.82 0 00.664 8.81c0 1.972 1.22 3.804 3.427 5.17C6.203 15.287 9.004 16 11.977 16c2.972 0 5.773-.714 7.885-2.018 2.206-1.351 3.427-3.183 3.427-5.17a4.8 4.8 0 00-.548-2.22l.47.123a.63.63 0 00.766-.434c.094-.326-.11-.668-.454-.761z" fill="#fff"/><path d="M14.122 3.65a.554.554 0 01-.342.71l-1.227.43v2.808a.554.554 0 01-.557.558.554.554 0 01-.557-.558v-2.8l-1.227-.43a.561.561 0 01-.342-.71.56.56 0 01.709-.342l1.417.502 1.417-.502a.555.555 0 01.71.334zM18 2.478V9.52c0 .24-.151.446-.374.526l-5.439 1.922h-.008c-.016.008-.04.008-.056.016-.007 0-.015.008-.031.008-.024 0-.048.008-.072.008h-.016c-.032 0-.064 0-.088-.008-.008 0-.016 0-.024-.008-.023-.008-.04-.008-.063-.016h-.008l-5.447-1.914A.559.559 0 016 9.528V2.406c0-.016.008-.032.008-.047v-.016c.008-.016.008-.04.016-.056 0 0 0-.008.008-.008a.114.114 0 00.016-.048c0-.008.008-.016.008-.016.024-.016.024-.024.032-.04 0-.008.008-.008.008-.016a.14.14 0 01.031-.04l.008-.008c.024-.032.056-.056.096-.087 0 0 .008 0 .008-.008.016-.008.024-.016.04-.024.008 0 .016-.008.016-.008.016-.008.024-.008.04-.016.007 0 .015-.008.023-.008 0 0 .008 0 .008-.008L11.813.03a.6.6 0 01.374 0l5.439 1.922s.008 0 .008.008c.008 0 .016.008.024.008.015.008.023.008.04.016.007 0 .015.008.015.008.016.008.024.016.04.024 0 0 .008 0 .008.008a.944.944 0 01.096.087l.008.008a.17.17 0 01.024.04c0 .008.008.008.008.016.007.008.015.024.023.032 0 .008.008.016.008.016a.114.114 0 01.016.048s0 .008.008.008c.008.016.016.04.016.056v.016c0 .016.008.031.008.047v.064c.024.008.024.016.024.016zm-1.115.79l-1.178.414a.553.553 0 01-.709-.343.551.551 0 01.342-.71l.43-.15-3.774-1.333L8.23 2.478l.43.152a.561.561 0 01.342.71.56.56 0 01-.709.342l-1.178-.414v5.861l4.324 1.531V9.536c0-.311.246-.558.557-.558.31 0 .557.247.557.558v1.124l4.324-1.53V3.267h.008z" fill="#fff"/></svg>